<svg width="12" height="15" viewBox="0 0 12 15" fill="none" xmlns="http://www.w3.org/2000/svg">
<path d="M4.96564 9.69619C4.56967 11.7051 4.08714 13.6308 2.65609 14.6367C2.21495 11.6008 3.30424 9.32126 3.81086 6.90099C2.94742 5.49317 3.91475 2.66149 5.73423 3.35957C7.97378 4.21738 3.79505 8.59109 6.59994 9.13817C9.52904 9.70786 10.7245 4.21447 8.90799 2.42807C6.28452 -0.152676 1.2702 2.36753 1.88749 6.06213C2.03729 6.96518 3.00011 7.23872 2.27216 8.48532C0.592695 8.12498 0.0913384 6.84117 0.156078 5.12991C0.259963 2.32887 2.75244 0.368872 5.2532 0.0967919C8.41566 -0.246773 11.3839 1.22231 11.7942 4.10432C12.2556 7.35834 10.3669 10.883 6.98461 10.6291C6.06772 10.5598 5.6838 10.1193 4.96564 9.69619Z" fill="#362A43"/>
</svg>
