<svg width="14" height="11" viewBox="0 0 14 11" fill="none" xmlns="http://www.w3.org/2000/svg">
<path d="M13.7261 1.64839C13.238 1.85522 12.7068 2.00408 12.1596 2.06205C12.7277 1.73055 13.1531 1.20682 13.356 0.589143C12.8229 0.900631 12.239 1.11905 11.63 1.23472C11.3755 0.96744 11.0676 0.754516 10.7256 0.609211C10.3837 0.463906 10.0149 0.389335 9.64231 0.390143C8.13481 0.390143 6.92243 1.59041 6.92243 3.06332C6.92243 3.27016 6.94796 3.47699 6.98943 3.67599C4.73217 3.56004 2.71898 2.50079 1.38058 0.879024C1.13671 1.28817 1.00891 1.75404 1.01048 2.22815C1.01048 3.15577 1.49065 3.97371 2.22286 4.45475C1.79136 4.43806 1.36996 4.32156 0.992934 4.11473V4.14763C0.992934 5.44662 1.92774 6.5231 3.17362 6.77067C2.9397 6.83036 2.69905 6.86089 2.45736 6.86155C2.28029 6.86155 2.11279 6.84432 1.9437 6.82081C2.28827 7.88006 3.29167 8.64942 4.4865 8.67449C3.5517 9.39371 2.38079 9.81678 1.10939 9.81678C0.881267 9.81678 0.670696 9.80894 0.452148 9.78387C1.65815 10.5438 3.08908 10.9826 4.63008 10.9826C9.63274 10.9826 12.3702 6.91169 12.3702 3.37827C12.3702 3.26232 12.3702 3.14637 12.3622 3.03042C12.8918 2.64965 13.356 2.17801 13.7261 1.64839Z" fill="#362A43"/>
</svg>
