<svg width="12" height="9" viewBox="0 0 12 9" fill="none" xmlns="http://www.w3.org/2000/svg">
<path fill-rule="evenodd" clip-rule="evenodd" d="M10.7128 6.23507C10.7128 6.23507 11.6597 7.44336 11.894 8.00249C11.8986 8.01056 11.9021 8.01949 11.9045 8.02897C12 8.23552 12.0234 8.39744 11.9766 8.51698C11.8975 8.71445 11.6299 8.81357 11.5391 8.82189H9.86542C9.74888 8.82189 9.50643 8.78255 9.21128 8.51925C8.98582 8.31573 8.76153 7.98055 8.54426 7.65294C8.21983 7.16645 7.93932 6.74426 7.6553 6.74426C7.61943 6.74416 7.5838 6.75184 7.54989 6.76696C7.33497 6.85473 7.06207 7.25043 7.06207 8.30438C7.06207 8.63425 6.86062 8.82189 6.71948 8.82189H5.95291C5.69172 8.82189 4.33192 8.70386 3.12614 7.06128C1.64862 5.05023 0.321616 1.01602 0.308733 0.980463C0.226161 0.719435 0.399503 0.577194 0.586901 0.577194H2.27699C2.50363 0.577194 2.57741 0.754239 2.62895 0.913125C2.68868 1.09547 2.91004 1.82483 3.27313 2.64423C3.86109 3.97737 4.22241 4.51985 4.51112 4.51985C4.56536 4.52006 4.61869 4.50179 4.66572 4.46689C5.04286 4.19905 4.97259 2.45886 4.95502 2.10023C4.95502 2.03063 4.95443 1.3232 4.76118 0.98122C4.62297 0.736081 4.38756 0.640748 4.24525 0.605945C4.28332 0.534824 4.36413 0.425873 4.46778 0.361562C4.72604 0.19511 5.19278 0.170898 5.656 0.170898H5.91309C6.41555 0.179978 6.54555 0.221591 6.72827 0.281362C7.09603 0.394853 7.10306 0.70279 7.07085 1.75144C7.06148 2.05106 7.05153 2.3885 7.05153 2.78572C7.05153 2.87046 7.0486 2.96503 7.0486 3.06112C7.03747 3.59906 7.02283 4.2051 7.31681 4.45403C7.35494 4.48471 7.39897 4.50096 7.44389 4.50093C7.54579 4.50093 7.85089 4.50093 8.67837 2.66617C9.04145 1.85585 9.32255 0.900263 9.34188 0.828386C9.35827 0.788286 9.40746 0.675552 9.4672 0.630156C9.50969 0.600948 9.55728 0.586357 9.6054 0.587787H11.5936C11.8103 0.587787 11.9572 0.630156 11.9859 0.736081C12.034 0.907829 11.9766 1.43215 11.0689 3.01799C10.916 3.28205 10.7819 3.51054 10.6642 3.71029C9.84141 5.10546 9.84141 5.17582 10.7128 6.23507Z" fill="#362A43"/>
</svg>
